<?xml version="1.0" encoding="UTF-8" standalone="no"?>
<!DOCTYPE svg PUBLIC "-//W3C//DTD SVG 1.1//EN"
 "http://www.w3.org/Graphics/SVG/1.1/DTD/svg11.dtd">
<!-- Generated by graphviz version 2.40.1 (20161225.0304)
 -->
<!-- Title: dependencies Pages: 1 -->
<svg width="1253pt" height="284pt"
 viewBox="0.00 0.00 1253.00 284.00" xmlns="http://www.w3.org/2000/svg" xmlns:xlink="http://www.w3.org/1999/xlink">
<g id="graph0" class="graph" transform="scale(1 1) rotate(0) translate(4 280)">
<title>dependencies</title>
<polygon fill="#ffffff" stroke="transparent" points="-4,4 -4,-280 1249,-280 1249,4 -4,4"/>
<text text-anchor="start" x="601.5091" y="-42.4" font-family="sans-serif" font-weight="bold" font-size="14.00" fill="#000000">Legend</text>
<polygon fill="#ffffb3" stroke="transparent" points="388.5,-10 388.5,-30 408.5,-30 408.5,-10 388.5,-10"/>
<text text-anchor="start" x="412.129" y="-15.4" font-family="sans-serif" font-size="14.00" fill="#000000"> &#160;Declarations</text>
<polygon fill="#8dd3c7" stroke="transparent" points="501.5,-10 501.5,-30 521.5,-30 521.5,-10 501.5,-10"/>
<text text-anchor="start" x="525.2251" y="-15.4" font-family="sans-serif" font-size="14.00" fill="#000000"> &#160;Module</text>
<polygon fill="#80b1d3" stroke="transparent" points="587.5,-10 587.5,-30 607.5,-30 607.5,-10 587.5,-10"/>
<text text-anchor="start" x="611.2812" y="-15.4" font-family="sans-serif" font-size="14.00" fill="#000000"> &#160;Bootstrap</text>
<polygon fill="#fdb462" stroke="transparent" points="684.5,-10 684.5,-30 704.5,-30 704.5,-10 684.5,-10"/>
<text text-anchor="start" x="708.1732" y="-15.4" font-family="sans-serif" font-size="14.00" fill="#000000"> &#160;Providers</text>
<polygon fill="#fb8072" stroke="transparent" points="780.5,-10 780.5,-30 800.5,-30 800.5,-10 780.5,-10"/>
<text text-anchor="start" x="804.2258" y="-15.4" font-family="sans-serif" font-size="14.00" fill="#000000"> &#160;Exports</text>
<g id="clust1" class="cluster">
<title>cluster_UiModule</title>
<polygon fill="none" stroke="#000000" stroke-dasharray="1,5" points="8,-70 8,-268 1237,-268 1237,-70 8,-70"/>
</g>
<g id="clust2" class="cluster">
<title>cluster_UiModule_declarations</title>
<polygon fill="none" stroke="#000000" points="28,-78 28,-130 1216,-130 1216,-78 28,-78"/>
</g>
<g id="clust11" class="cluster">
<title>cluster_UiModule_exports</title>
<polygon fill="none" stroke="#000000" points="16,-208 16,-260 1229,-260 1229,-208 16,-208"/>
</g>
<!-- CardPipe -->
<g id="node1" class="node">
<title>CardPipe</title>
<polygon fill="#ffffb3" stroke="#000000" points="1208.0997,-122 1139.9003,-122 1139.9003,-86 1208.0997,-86 1208.0997,-122"/>
<text text-anchor="middle" x="1174" y="-99.8" font-family="Times,serif" font-size="14.00" fill="#000000">CardPipe</text>
</g>
<!-- UiModule -->
<g id="node8" class="node">
<title>UiModule</title>
<polygon fill="#8dd3c7" stroke="#000000" points="801.5484,-187 798.5484,-191 777.5484,-191 774.5484,-187 728.4516,-187 728.4516,-151 801.5484,-151 801.5484,-187"/>
<text text-anchor="middle" x="765" y="-164.8" font-family="Times,serif" font-size="14.00" fill="#000000">UiModule</text>
</g>
<!-- CardPipe&#45;&gt;UiModule -->
<g id="edge1" class="edge">
<title>CardPipe&#45;&gt;UiModule</title>
<path fill="none" stroke="#000000" d="M1144.5752,-122.2222C1144.5752,-140.8285 1144.5752,-167 1144.5752,-167 1144.5752,-167 811.7402,-167 811.7402,-167"/>
<polygon fill="#000000" stroke="#000000" points="811.7402,-163.5001 801.7402,-167 811.7401,-170.5001 811.7402,-163.5001"/>
</g>
<!-- CreditCardDirective -->
<g id="node2" class="node">
<title>CreditCardDirective</title>
<polygon fill="#ffffb3" stroke="#000000" points="1122.2879,-122 991.7121,-122 991.7121,-86 1122.2879,-86 1122.2879,-122"/>
<text text-anchor="middle" x="1057" y="-99.8" font-family="Times,serif" font-size="14.00" fill="#000000">CreditCardDirective</text>
</g>
<!-- CreditCardDirective&#45;&gt;UiModule -->
<g id="edge2" class="edge">
<title>CreditCardDirective&#45;&gt;UiModule</title>
<path fill="none" stroke="#000000" d="M1080.4646,-122.0336C1080.4646,-139.0597 1080.4646,-162 1080.4646,-162 1080.4646,-162 811.8052,-162 811.8052,-162"/>
<polygon fill="#000000" stroke="#000000" points="811.8052,-158.5001 801.8052,-162 811.8052,-165.5001 811.8052,-158.5001"/>
</g>
<!-- IconComponent -->
<g id="node3" class="node">
<title>IconComponent</title>
<polygon fill="#ffffb3" stroke="#000000" points="974.2078,-122 867.7922,-122 867.7922,-86 974.2078,-86 974.2078,-122"/>
<text text-anchor="middle" x="921" y="-99.8" font-family="Times,serif" font-size="14.00" fill="#000000">IconComponent</text>
</g>
<!-- IconComponent&#45;&gt;UiModule -->
<g id="edge3" class="edge">
<title>IconComponent&#45;&gt;UiModule</title>
<path fill="none" stroke="#000000" d="M939.1179,-122.2396C939.1179,-137.5706 939.1179,-157 939.1179,-157 939.1179,-157 811.9259,-157 811.9259,-157"/>
<polygon fill="#000000" stroke="#000000" points="811.926,-153.5001 801.9259,-157 811.9259,-160.5001 811.926,-153.5001"/>
</g>
<!-- InputMoleculesComponent -->
<g id="node4" class="node">
<title>InputMoleculesComponent</title>
<polygon fill="#ffffb3" stroke="#000000" points="849.6979,-122 680.3021,-122 680.3021,-86 849.6979,-86 849.6979,-122"/>
<text text-anchor="middle" x="765" y="-99.8" font-family="Times,serif" font-size="14.00" fill="#000000">InputMoleculesComponent</text>
</g>
<!-- InputMoleculesComponent&#45;&gt;UiModule -->
<g id="edge4" class="edge">
<title>InputMoleculesComponent&#45;&gt;UiModule</title>
<path fill="none" stroke="#000000" d="M765,-122.1061C765,-122.1061 765,-140.991 765,-140.991"/>
<polygon fill="#000000" stroke="#000000" points="761.5001,-140.9909 765,-150.991 768.5001,-140.991 761.5001,-140.9909"/>
</g>
<!-- InputRememberMoleculesComponent -->
<g id="node5" class="node">
<title>InputRememberMoleculesComponent</title>
<polygon fill="#ffffb3" stroke="#000000" points="662.1203,-122 431.8797,-122 431.8797,-86 662.1203,-86 662.1203,-122"/>
<text text-anchor="middle" x="547" y="-99.8" font-family="Times,serif" font-size="14.00" fill="#000000">InputRememberMoleculesComponent</text>
</g>
<!-- InputRememberMoleculesComponent&#45;&gt;UiModule -->
<g id="edge5" class="edge">
<title>InputRememberMoleculesComponent&#45;&gt;UiModule</title>
<path fill="none" stroke="#000000" d="M584.6033,-122.2396C584.6033,-137.5706 584.6033,-157 584.6033,-157 584.6033,-157 718.0587,-157 718.0587,-157"/>
<polygon fill="#000000" stroke="#000000" points="718.0588,-160.5001 728.0587,-157 718.0587,-153.5001 718.0588,-160.5001"/>
</g>
<!-- InputWithCheckboxComponent -->
<g id="node6" class="node">
<title>InputWithCheckboxComponent</title>
<polygon fill="#ffffb3" stroke="#000000" points="413.6455,-122 218.3545,-122 218.3545,-86 413.6455,-86 413.6455,-122"/>
<text text-anchor="middle" x="316" y="-99.8" font-family="Times,serif" font-size="14.00" fill="#000000">InputWithCheckboxComponent</text>
</g>
<!-- InputWithCheckboxComponent&#45;&gt;UiModule -->
<g id="edge6" class="edge">
<title>InputWithCheckboxComponent&#45;&gt;UiModule</title>
<path fill="none" stroke="#000000" d="M345.1075,-122.0336C345.1075,-139.0597 345.1075,-162 345.1075,-162 345.1075,-162 718.1054,-162 718.1054,-162"/>
<polygon fill="#000000" stroke="#000000" points="718.1054,-165.5001 728.1054,-162 718.1053,-158.5001 718.1054,-165.5001"/>
</g>
<!-- InputWithIconComponent -->
<g id="node7" class="node">
<title>InputWithIconComponent</title>
<polygon fill="#ffffb3" stroke="#000000" points="199.7548,-122 36.2452,-122 36.2452,-86 199.7548,-86 199.7548,-122"/>
<text text-anchor="middle" x="118" y="-99.8" font-family="Times,serif" font-size="14.00" fill="#000000">InputWithIconComponent</text>
</g>
<!-- InputWithIconComponent&#45;&gt;UiModule -->
<g id="edge7" class="edge">
<title>InputWithIconComponent&#45;&gt;UiModule</title>
<path fill="none" stroke="#000000" d="M195.7523,-122.2222C195.7523,-140.8285 195.7523,-167 195.7523,-167 195.7523,-167 718.0887,-167 718.0887,-167"/>
<polygon fill="#000000" stroke="#000000" points="718.0887,-170.5001 728.0887,-167 718.0886,-163.5001 718.0887,-170.5001"/>
</g>
<!-- CardPipe  -->
<g id="node9" class="node">
<title>CardPipe </title>
<polygon fill="#fb8072" stroke="#000000" points="1220.6007,-252 1149.3993,-252 1149.3993,-216 1220.6007,-216 1220.6007,-252"/>
<text text-anchor="middle" x="1185" y="-229.8" font-family="Times,serif" font-size="14.00" fill="#000000">CardPipe </text>
</g>
<!-- UiModule&#45;&gt;CardPipe  -->
<g id="edge8" class="edge">
<title>UiModule&#45;&gt;CardPipe </title>
<path fill="none" stroke="#000000" stroke-dasharray="5,2" d="M801.7065,-172C902.936,-172 1178.625,-172 1178.625,-172 1178.625,-172 1178.625,-205.7333 1178.625,-205.7333"/>
<polygon fill="#000000" stroke="#000000" points="1175.1251,-205.7333 1178.625,-215.7333 1182.1251,-205.7333 1175.1251,-205.7333"/>
</g>
<!-- CreditCardDirective  -->
<g id="node10" class="node">
<title>CreditCardDirective </title>
<polygon fill="#fb8072" stroke="#000000" points="1130.7878,-252 997.2122,-252 997.2122,-216 1130.7878,-216 1130.7878,-252"/>
<text text-anchor="middle" x="1064" y="-229.8" font-family="Times,serif" font-size="14.00" fill="#000000">CreditCardDirective </text>
</g>
<!-- UiModule&#45;&gt;CreditCardDirective  -->
<g id="edge9" class="edge">
<title>UiModule&#45;&gt;CreditCardDirective </title>
<path fill="none" stroke="#000000" stroke-dasharray="5,2" d="M801.6398,-177C876.2439,-177 1038.7854,-177 1038.7854,-177 1038.7854,-177 1038.7854,-205.9648 1038.7854,-205.9648"/>
<polygon fill="#000000" stroke="#000000" points="1035.2855,-205.9648 1038.7854,-215.9648 1042.2855,-205.9649 1035.2855,-205.9648"/>
</g>
<!-- IconComponent  -->
<g id="node11" class="node">
<title>IconComponent </title>
<polygon fill="#fb8072" stroke="#000000" points="978.708,-252 869.292,-252 869.292,-216 978.708,-216 978.708,-252"/>
<text text-anchor="middle" x="924" y="-229.8" font-family="Times,serif" font-size="14.00" fill="#000000">IconComponent </text>
</g>
<!-- UiModule&#45;&gt;IconComponent  -->
<g id="edge10" class="edge">
<title>UiModule&#45;&gt;IconComponent </title>
<path fill="none" stroke="#000000" stroke-dasharray="5,2" d="M801.5553,-182C842.7777,-182 904.1321,-182 904.1321,-182 904.1321,-182 904.1321,-205.8129 904.1321,-205.8129"/>
<polygon fill="#000000" stroke="#000000" points="900.6322,-205.8129 904.1321,-215.8129 907.6322,-205.813 900.6322,-205.8129"/>
</g>
<!-- InputMoleculesComponent  -->
<g id="node12" class="node">
<title>InputMoleculesComponent </title>
<polygon fill="#fb8072" stroke="#000000" points="851.1981,-252 678.8019,-252 678.8019,-216 851.1981,-216 851.1981,-252"/>
<text text-anchor="middle" x="765" y="-229.8" font-family="Times,serif" font-size="14.00" fill="#000000">InputMoleculesComponent </text>
</g>
<!-- UiModule&#45;&gt;InputMoleculesComponent  -->
<g id="edge11" class="edge">
<title>UiModule&#45;&gt;InputMoleculesComponent </title>
<path fill="none" stroke="#000000" stroke-dasharray="5,2" d="M765,-187.1061C765,-187.1061 765,-205.991 765,-205.991"/>
<polygon fill="#000000" stroke="#000000" points="761.5001,-205.9909 765,-215.991 768.5001,-205.991 761.5001,-205.9909"/>
</g>
<!-- InputRememberMoleculesComponent  -->
<g id="node13" class="node">
<title>InputRememberMoleculesComponent </title>
<polygon fill="#fb8072" stroke="#000000" points="661.12,-252 426.88,-252 426.88,-216 661.12,-216 661.12,-252"/>
<text text-anchor="middle" x="544" y="-229.8" font-family="Times,serif" font-size="14.00" fill="#000000">InputRememberMoleculesComponent </text>
</g>
<!-- UiModule&#45;&gt;InputRememberMoleculesComponent  -->
<g id="edge12" class="edge">
<title>UiModule&#45;&gt;InputRememberMoleculesComponent </title>
<path fill="none" stroke="#000000" stroke-dasharray="5,2" d="M728.1992,-182C657.1769,-182 508.1467,-182 508.1467,-182 508.1467,-182 508.1467,-205.8129 508.1467,-205.8129"/>
<polygon fill="#000000" stroke="#000000" points="504.6468,-205.8129 508.1467,-215.8129 511.6468,-205.813 504.6468,-205.8129"/>
</g>
<!-- InputWithCheckboxComponent  -->
<g id="node14" class="node">
<title>InputWithCheckboxComponent </title>
<polygon fill="#fb8072" stroke="#000000" points="408.6453,-252 209.3547,-252 209.3547,-216 408.6453,-216 408.6453,-252"/>
<text text-anchor="middle" x="309" y="-229.8" font-family="Times,serif" font-size="14.00" fill="#000000">InputWithCheckboxComponent </text>
</g>
<!-- UiModule&#45;&gt;InputWithCheckboxComponent  -->
<g id="edge13" class="edge">
<title>UiModule&#45;&gt;InputWithCheckboxComponent </title>
<path fill="none" stroke="#000000" stroke-dasharray="5,2" d="M728.2729,-177C615.4743,-177 281.6425,-177 281.6425,-177 281.6425,-177 281.6425,-205.9648 281.6425,-205.9648"/>
<polygon fill="#000000" stroke="#000000" points="278.1426,-205.9648 281.6425,-215.9648 285.1426,-205.9649 278.1426,-205.9648"/>
</g>
<!-- InputWithIconComponent  -->
<g id="node15" class="node">
<title>InputWithIconComponent </title>
<polygon fill="#fb8072" stroke="#000000" points="191.7548,-252 24.2452,-252 24.2452,-216 191.7548,-216 191.7548,-252"/>
<text text-anchor="middle" x="108" y="-229.8" font-family="Times,serif" font-size="14.00" fill="#000000">InputWithIconComponent </text>
</g>
<!-- UiModule&#45;&gt;InputWithIconComponent  -->
<g id="edge14" class="edge">
<title>UiModule&#45;&gt;InputWithIconComponent </title>
<path fill="none" stroke="#000000" stroke-dasharray="5,2" d="M728.1271,-172C590.3857,-172 113.875,-172 113.875,-172 113.875,-172 113.875,-205.7333 113.875,-205.7333"/>
<polygon fill="#000000" stroke="#000000" points="110.3751,-205.7333 113.875,-215.7333 117.3751,-205.7333 110.3751,-205.7333"/>
</g>
</g>
</svg>
