<?xml version="1.0" encoding="UTF-8" standalone="no"?>
<!DOCTYPE svg PUBLIC "-//W3C//DTD SVG 1.1//EN"
 "http://www.w3.org/Graphics/SVG/1.1/DTD/svg11.dtd">
<!-- Generated by graphviz version 2.40.1 (20161225.0304)
 -->
<!-- Title: dependencies Pages: 1 -->
<svg width="646pt" height="284pt"
 viewBox="0.00 0.00 646.00 284.00" xmlns="http://www.w3.org/2000/svg" xmlns:xlink="http://www.w3.org/1999/xlink">
<g id="graph0" class="graph" transform="scale(1 1) rotate(0) translate(4 280)">
<title>dependencies</title>
<polygon fill="#ffffff" stroke="transparent" points="-4,4 -4,-280 642,-280 642,4 -4,4"/>
<text text-anchor="start" x="298.0091" y="-42.4" font-family="sans-serif" font-weight="bold" font-size="14.00" fill="#000000">Legend</text>
<polygon fill="#ffffb3" stroke="transparent" points="85,-10 85,-30 105,-30 105,-10 85,-10"/>
<text text-anchor="start" x="108.629" y="-15.4" font-family="sans-serif" font-size="14.00" fill="#000000"> &#160;Declarations</text>
<polygon fill="#8dd3c7" stroke="transparent" points="198,-10 198,-30 218,-30 218,-10 198,-10"/>
<text text-anchor="start" x="221.7251" y="-15.4" font-family="sans-serif" font-size="14.00" fill="#000000"> &#160;Module</text>
<polygon fill="#80b1d3" stroke="transparent" points="284,-10 284,-30 304,-30 304,-10 284,-10"/>
<text text-anchor="start" x="307.7812" y="-15.4" font-family="sans-serif" font-size="14.00" fill="#000000"> &#160;Bootstrap</text>
<polygon fill="#fdb462" stroke="transparent" points="381,-10 381,-30 401,-30 401,-10 381,-10"/>
<text text-anchor="start" x="404.6732" y="-15.4" font-family="sans-serif" font-size="14.00" fill="#000000"> &#160;Providers</text>
<polygon fill="#fb8072" stroke="transparent" points="477,-10 477,-30 497,-30 497,-10 477,-10"/>
<text text-anchor="start" x="500.7258" y="-15.4" font-family="sans-serif" font-size="14.00" fill="#000000"> &#160;Exports</text>
<g id="clust1" class="cluster">
<title>cluster_AppModule</title>
<polygon fill="none" stroke="#000000" stroke-dasharray="1,5" points="8,-70 8,-268 630,-268 630,-70 8,-70"/>
</g>
<g id="clust2" class="cluster">
<title>cluster_AppModule_declarations</title>
<polygon fill="none" stroke="#000000" points="370,-78 370,-130 622,-130 622,-78 370,-78"/>
</g>
<g id="clust5" class="cluster">
<title>cluster_AppModule_imports</title>
<polygon fill="none" stroke="#000000" points="16,-78 16,-130 362,-130 362,-78 16,-78"/>
</g>
<g id="clust7" class="cluster">
<title>cluster_AppModule_bootstrap</title>
<polygon fill="none" stroke="#000000" points="228,-208 228,-260 352,-260 352,-208 228,-208"/>
</g>
<!-- AppComponent -->
<g id="node1" class="node">
<title>AppComponent</title>
<polygon fill="#ffffb3" stroke="#000000" points="613.9399,-122 508.0601,-122 508.0601,-86 613.9399,-86 613.9399,-122"/>
<text text-anchor="middle" x="561" y="-99.8" font-family="Times,serif" font-size="14.00" fill="#000000">AppComponent</text>
</g>
<!-- AppModule -->
<g id="node3" class="node">
<title>AppModule</title>
<polygon fill="#8dd3c7" stroke="#000000" points="331.6571,-187 328.6571,-191 307.6571,-191 304.6571,-187 248.3429,-187 248.3429,-151 331.6571,-151 331.6571,-187"/>
<text text-anchor="middle" x="290" y="-164.8" font-family="Times,serif" font-size="14.00" fill="#000000">AppModule</text>
</g>
<!-- AppComponent&#45;&gt;AppModule -->
<g id="edge1" class="edge">
<title>AppComponent&#45;&gt;AppModule</title>
<path fill="none" stroke="#000000" d="M561,-122.2843C561,-143.3211 561,-175 561,-175 561,-175 341.7498,-175 341.7498,-175"/>
<polygon fill="#000000" stroke="#000000" points="341.7499,-171.5001 331.7498,-175 341.7498,-178.5001 341.7499,-171.5001"/>
</g>
<!-- HelloComponent -->
<g id="node2" class="node">
<title>HelloComponent</title>
<polygon fill="#ffffb3" stroke="#000000" points="490.4356,-122 377.5644,-122 377.5644,-86 490.4356,-86 490.4356,-122"/>
<text text-anchor="middle" x="434" y="-99.8" font-family="Times,serif" font-size="14.00" fill="#000000">HelloComponent</text>
</g>
<!-- HelloComponent&#45;&gt;AppModule -->
<g id="edge2" class="edge">
<title>HelloComponent&#45;&gt;AppModule</title>
<path fill="none" stroke="#000000" d="M434,-122.0225C434,-139.3734 434,-163 434,-163 434,-163 342.0379,-163 342.0379,-163"/>
<polygon fill="#000000" stroke="#000000" points="342.0379,-159.5001 332.0379,-163 342.0378,-166.5001 342.0379,-159.5001"/>
</g>
<!-- AppComponent  -->
<g id="node7" class="node">
<title>AppComponent </title>
<polygon fill="#80b1d3" stroke="#000000" points="344.439,-252 235.561,-252 235.561,-216 344.439,-216 344.439,-252"/>
<text text-anchor="middle" x="290" y="-229.8" font-family="Times,serif" font-size="14.00" fill="#000000">AppComponent </text>
</g>
<!-- AppModule&#45;&gt;AppComponent  -->
<g id="edge6" class="edge">
<title>AppModule&#45;&gt;AppComponent </title>
<path fill="none" stroke="#000000" stroke-dasharray="1,5" d="M290,-187.1061C290,-187.1061 290,-205.991 290,-205.991"/>
<polygon fill="#000000" stroke="#000000" points="286.5001,-205.9909 290,-215.991 293.5001,-205.991 286.5001,-205.9909"/>
</g>
<!-- AppRoutingModule -->
<g id="node4" class="node">
<title>AppRoutingModule</title>
<polygon fill="#8dd3c7" stroke="#000000" points="354.2744,-122 351.2744,-126 330.2744,-126 327.2744,-122 225.7256,-122 225.7256,-86 354.2744,-86 354.2744,-122"/>
<text text-anchor="middle" x="290" y="-99.8" font-family="Times,serif" font-size="14.00" fill="#000000">AppRoutingModule</text>
</g>
<!-- AppRoutingModule&#45;&gt;AppModule -->
<g id="edge3" class="edge">
<title>AppRoutingModule&#45;&gt;AppModule</title>
<path fill="none" stroke="#000000" d="M290,-122.1061C290,-122.1061 290,-140.991 290,-140.991"/>
<polygon fill="#000000" stroke="#000000" points="286.5001,-140.9909 290,-150.991 293.5001,-140.991 286.5001,-140.9909"/>
</g>
<!-- PagesModule -->
<g id="node5" class="node">
<title>PagesModule</title>
<polygon fill="#8dd3c7" stroke="#000000" points="208.2064,-122 205.2064,-126 184.2064,-126 181.2064,-122 115.7936,-122 115.7936,-86 208.2064,-86 208.2064,-122"/>
<text text-anchor="middle" x="162" y="-99.8" font-family="Times,serif" font-size="14.00" fill="#000000">PagesModule</text>
</g>
<!-- PagesModule&#45;&gt;AppModule -->
<g id="edge4" class="edge">
<title>PagesModule&#45;&gt;AppModule</title>
<path fill="none" stroke="#000000" d="M162,-122.0225C162,-139.3734 162,-163 162,-163 162,-163 238.088,-163 238.088,-163"/>
<polygon fill="#000000" stroke="#000000" points="238.088,-166.5001 248.088,-163 238.088,-159.5001 238.088,-166.5001"/>
</g>
<!-- UiModule -->
<g id="node6" class="node">
<title>UiModule</title>
<polygon fill="#8dd3c7" stroke="#000000" points="97.5484,-122 94.5484,-126 73.5484,-126 70.5484,-122 24.4516,-122 24.4516,-86 97.5484,-86 97.5484,-122"/>
<text text-anchor="middle" x="61" y="-99.8" font-family="Times,serif" font-size="14.00" fill="#000000">UiModule</text>
</g>
<!-- UiModule&#45;&gt;AppModule -->
<g id="edge5" class="edge">
<title>UiModule&#45;&gt;AppModule</title>
<path fill="none" stroke="#000000" d="M61,-122.2843C61,-143.3211 61,-175 61,-175 61,-175 238.2641,-175 238.2641,-175"/>
<polygon fill="#000000" stroke="#000000" points="238.2642,-178.5001 248.2641,-175 238.2641,-171.5001 238.2642,-178.5001"/>
</g>
</g>
</svg>
