<?xml version="1.0" encoding="UTF-8" standalone="no"?>
<!DOCTYPE svg PUBLIC "-//W3C//DTD SVG 1.1//EN"
 "http://www.w3.org/Graphics/SVG/1.1/DTD/svg11.dtd">
<!-- Generated by graphviz version 2.40.1 (20161225.0304)
 -->
<!-- Title: dependencies Pages: 1 -->
<svg width="694pt" height="349pt"
 viewBox="0.00 0.00 694.00 349.00" xmlns="http://www.w3.org/2000/svg" xmlns:xlink="http://www.w3.org/1999/xlink">
<g id="graph0" class="graph" transform="scale(1 1) rotate(0) translate(4 345)">
<title>dependencies</title>
<polygon fill="#ffffff" stroke="transparent" points="-4,4 -4,-345 690,-345 690,4 -4,4"/>
<text text-anchor="start" x="322.0091" y="-42.4" font-family="sans-serif" font-weight="bold" font-size="14.00" fill="#000000">Legend</text>
<polygon fill="#ffffb3" stroke="transparent" points="109,-10 109,-30 129,-30 129,-10 109,-10"/>
<text text-anchor="start" x="132.629" y="-15.4" font-family="sans-serif" font-size="14.00" fill="#000000"> &#160;Declarations</text>
<polygon fill="#8dd3c7" stroke="transparent" points="222,-10 222,-30 242,-30 242,-10 222,-10"/>
<text text-anchor="start" x="245.7251" y="-15.4" font-family="sans-serif" font-size="14.00" fill="#000000"> &#160;Module</text>
<polygon fill="#80b1d3" stroke="transparent" points="308,-10 308,-30 328,-30 328,-10 308,-10"/>
<text text-anchor="start" x="331.7812" y="-15.4" font-family="sans-serif" font-size="14.00" fill="#000000"> &#160;Bootstrap</text>
<polygon fill="#fdb462" stroke="transparent" points="405,-10 405,-30 425,-30 425,-10 405,-10"/>
<text text-anchor="start" x="428.6732" y="-15.4" font-family="sans-serif" font-size="14.00" fill="#000000"> &#160;Providers</text>
<polygon fill="#fb8072" stroke="transparent" points="501,-10 501,-30 521,-30 521,-10 501,-10"/>
<text text-anchor="start" x="524.7258" y="-15.4" font-family="sans-serif" font-size="14.00" fill="#000000"> &#160;Exports</text>
<g id="clust1" class="cluster">
<title>cluster_PagesModule</title>
<polygon fill="none" stroke="#000000" stroke-dasharray="1,5" points="8,-70 8,-333 678,-333 678,-70 8,-70"/>
</g>
<g id="clust2" class="cluster">
<title>cluster_PagesModule_declarations</title>
<polygon fill="none" stroke="#000000" points="114,-143 114,-195 670,-195 670,-143 114,-143"/>
</g>
<g id="clust4" class="cluster">
<title>cluster_PagesModule_PagesComponent_providers</title>
<polygon fill="none" stroke="#000000" points="418,-78 418,-130 528,-130 528,-78 418,-78"/>
</g>
<g id="clust7" class="cluster">
<title>cluster_PagesModule_imports</title>
<polygon fill="none" stroke="#000000" points="16,-143 16,-195 106,-195 106,-143 16,-143"/>
</g>
<g id="clust8" class="cluster">
<title>cluster_PagesModule_exports</title>
<polygon fill="none" stroke="#000000" points="57,-273 57,-325 629,-325 629,-273 57,-273"/>
</g>
<!-- LoginComponent -->
<g id="node1" class="node">
<title>LoginComponent</title>
<polygon fill="#ffffb3" stroke="#000000" points="662.2758,-187 547.7242,-187 547.7242,-151 662.2758,-151 662.2758,-187"/>
<text text-anchor="middle" x="605" y="-164.8" font-family="Times,serif" font-size="14.00" fill="#000000">LoginComponent</text>
</g>
<!-- PagesModule -->
<g id="node5" class="node">
<title>PagesModule</title>
<polygon fill="#8dd3c7" stroke="#000000" points="379.2064,-252 376.2064,-256 355.2064,-256 352.2064,-252 286.7936,-252 286.7936,-216 379.2064,-216 379.2064,-252"/>
<text text-anchor="middle" x="333" y="-229.8" font-family="Times,serif" font-size="14.00" fill="#000000">PagesModule</text>
</g>
<!-- LoginComponent&#45;&gt;PagesModule -->
<g id="edge1" class="edge">
<title>LoginComponent&#45;&gt;PagesModule</title>
<path fill="none" stroke="#000000" d="M584.375,-187.1061C584.375,-206.3391 584.375,-234 584.375,-234 584.375,-234 389.106,-234 389.106,-234"/>
<polygon fill="#000000" stroke="#000000" points="389.1061,-230.5001 379.106,-234 389.106,-237.5001 389.1061,-230.5001"/>
</g>
<!-- PagesComponent -->
<g id="node2" class="node">
<title>PagesComponent</title>
<polygon fill="#ffffb3" stroke="#000000" points="529.9888,-187 416.0112,-187 416.0112,-151 529.9888,-151 529.9888,-187"/>
<text text-anchor="middle" x="473" y="-164.8" font-family="Times,serif" font-size="14.00" fill="#000000">PagesComponent</text>
</g>
<!-- PagesComponent&#45;&gt;PagesModule -->
<g id="edge2" class="edge">
<title>PagesComponent&#45;&gt;PagesModule</title>
<path fill="none" stroke="#000000" d="M450.375,-187.027C450.375,-203.3976 450.375,-225 450.375,-225 450.375,-225 389.3897,-225 389.3897,-225"/>
<polygon fill="#000000" stroke="#000000" points="389.3897,-221.5001 379.3897,-225 389.3897,-228.5001 389.3897,-221.5001"/>
</g>
<!-- PaymentComponent -->
<g id="node3" class="node">
<title>PaymentComponent</title>
<polygon fill="#ffffb3" stroke="#000000" points="398.3258,-187 267.6742,-187 267.6742,-151 398.3258,-151 398.3258,-187"/>
<text text-anchor="middle" x="333" y="-164.8" font-family="Times,serif" font-size="14.00" fill="#000000">PaymentComponent</text>
</g>
<!-- PaymentComponent&#45;&gt;PagesModule -->
<g id="edge4" class="edge">
<title>PaymentComponent&#45;&gt;PagesModule</title>
<path fill="none" stroke="#000000" d="M333,-187.1061C333,-187.1061 333,-205.991 333,-205.991"/>
<polygon fill="#000000" stroke="#000000" points="329.5001,-205.9909 333,-215.991 336.5001,-205.991 329.5001,-205.9909"/>
</g>
<!-- RegisterComponent -->
<g id="node4" class="node">
<title>RegisterComponent</title>
<polygon fill="#ffffb3" stroke="#000000" points="249.9846,-187 122.0154,-187 122.0154,-151 249.9846,-151 249.9846,-187"/>
<text text-anchor="middle" x="186" y="-164.8" font-family="Times,serif" font-size="14.00" fill="#000000">RegisterComponent</text>
</g>
<!-- RegisterComponent&#45;&gt;PagesModule -->
<g id="edge5" class="edge">
<title>RegisterComponent&#45;&gt;PagesModule</title>
<path fill="none" stroke="#000000" d="M232.5398,-187.027C232.5398,-203.3976 232.5398,-225 232.5398,-225 232.5398,-225 276.8862,-225 276.8862,-225"/>
<polygon fill="#000000" stroke="#000000" points="276.8863,-228.5001 286.8862,-225 276.8862,-221.5001 276.8863,-228.5001"/>
</g>
<!-- LoginComponent  -->
<g id="node8" class="node">
<title>LoginComponent </title>
<polygon fill="#fb8072" stroke="#000000" points="621.2759,-317 502.7241,-317 502.7241,-281 621.2759,-281 621.2759,-317"/>
<text text-anchor="middle" x="562" y="-294.8" font-family="Times,serif" font-size="14.00" fill="#000000">LoginComponent </text>
</g>
<!-- PagesModule&#45;&gt;LoginComponent  -->
<g id="edge7" class="edge">
<title>PagesModule&#45;&gt;LoginComponent </title>
<path fill="none" stroke="#000000" stroke-dasharray="5,2" d="M379.2867,-243C433.6258,-243 516.4283,-243 516.4283,-243 516.4283,-243 516.4283,-270.973 516.4283,-270.973"/>
<polygon fill="#000000" stroke="#000000" points="512.9284,-270.973 516.4283,-280.973 519.9284,-270.973 512.9284,-270.973"/>
</g>
<!-- PagesComponent  -->
<g id="node9" class="node">
<title>PagesComponent </title>
<polygon fill="#fb8072" stroke="#000000" points="484.9898,-317 367.0102,-317 367.0102,-281 484.9898,-281 484.9898,-317"/>
<text text-anchor="middle" x="426" y="-294.8" font-family="Times,serif" font-size="14.00" fill="#000000">PagesComponent </text>
</g>
<!-- PagesModule&#45;&gt;PagesComponent  -->
<g id="edge8" class="edge">
<title>PagesModule&#45;&gt;PagesComponent </title>
<path fill="none" stroke="#000000" stroke-dasharray="5,2" d="M373.1794,-252.1061C373.1794,-252.1061 373.1794,-270.991 373.1794,-270.991"/>
<polygon fill="#000000" stroke="#000000" points="369.6794,-270.9909 373.1794,-280.991 376.6794,-270.991 369.6794,-270.9909"/>
</g>
<!-- PaymentComponent  -->
<g id="node10" class="node">
<title>PaymentComponent </title>
<polygon fill="#fb8072" stroke="#000000" points="348.8255,-317 215.1745,-317 215.1745,-281 348.8255,-281 348.8255,-317"/>
<text text-anchor="middle" x="282" y="-294.8" font-family="Times,serif" font-size="14.00" fill="#000000">PaymentComponent </text>
</g>
<!-- PagesModule&#45;&gt;PaymentComponent  -->
<g id="edge9" class="edge">
<title>PagesModule&#45;&gt;PaymentComponent </title>
<path fill="none" stroke="#000000" stroke-dasharray="5,2" d="M317.9048,-252.1061C317.9048,-252.1061 317.9048,-270.991 317.9048,-270.991"/>
<polygon fill="#000000" stroke="#000000" points="314.4049,-270.9909 317.9048,-280.991 321.4049,-270.991 314.4049,-270.9909"/>
</g>
<!-- RegisterComponent  -->
<g id="node11" class="node">
<title>RegisterComponent </title>
<polygon fill="#fb8072" stroke="#000000" points="196.9855,-317 65.0145,-317 65.0145,-281 196.9855,-281 196.9855,-317"/>
<text text-anchor="middle" x="131" y="-294.8" font-family="Times,serif" font-size="14.00" fill="#000000">RegisterComponent </text>
</g>
<!-- PagesModule&#45;&gt;RegisterComponent  -->
<g id="edge10" class="edge">
<title>PagesModule&#45;&gt;RegisterComponent </title>
<path fill="none" stroke="#000000" stroke-dasharray="5,2" d="M286.4717,-243C235.0419,-243 159.375,-243 159.375,-243 159.375,-243 159.375,-270.973 159.375,-270.973"/>
<polygon fill="#000000" stroke="#000000" points="155.8751,-270.973 159.375,-280.973 162.8751,-270.973 155.8751,-270.973"/>
</g>
<!-- CardPipe -->
<g id="node6" class="node">
<title>CardPipe</title>
<ellipse fill="#fdb462" stroke="#000000" cx="473" cy="-104" rx="46.9477" ry="18"/>
<text text-anchor="middle" x="473" y="-99.8" font-family="Times,serif" font-size="14.00" fill="#000000">CardPipe</text>
</g>
<!-- CardPipe&#45;&gt;PagesComponent -->
<g id="edge3" class="edge">
<title>CardPipe&#45;&gt;PagesComponent</title>
<path fill="none" stroke="#000000" d="M473,-122.1061C473,-122.1061 473,-140.991 473,-140.991"/>
<polygon fill="#000000" stroke="#000000" points="469.5001,-140.9909 473,-150.991 476.5001,-140.991 469.5001,-140.9909"/>
</g>
<!-- UiModule -->
<g id="node7" class="node">
<title>UiModule</title>
<polygon fill="#8dd3c7" stroke="#000000" points="97.5484,-187 94.5484,-191 73.5484,-191 70.5484,-187 24.4516,-187 24.4516,-151 97.5484,-151 97.5484,-187"/>
<text text-anchor="middle" x="61" y="-164.8" font-family="Times,serif" font-size="14.00" fill="#000000">UiModule</text>
</g>
<!-- UiModule&#45;&gt;PagesModule -->
<g id="edge6" class="edge">
<title>UiModule&#45;&gt;PagesModule</title>
<path fill="none" stroke="#000000" d="M81.5156,-187.1061C81.5156,-206.3391 81.5156,-234 81.5156,-234 81.5156,-234 276.8739,-234 276.8739,-234"/>
<polygon fill="#000000" stroke="#000000" points="276.8739,-237.5001 286.8739,-234 276.8738,-230.5001 276.8739,-237.5001"/>
</g>
</g>
</svg>
